<svg id="flir-logo" viewBox="0 0 273.71 43.81"><g data-name="Layer 2"><path d="M107.51 0v3h-4.13v14.8h-3.71V3h-4.13V0zM109.24 17.75V0h9.68v2.73h-6V7.1h5.5v2.73H113V15h6.17v2.73zM121.55 17.75V0h3.71v14.8h5.56v2.95zM132.44 17.75V0h9.69v2.73h-6V7.1h5.51v2.73h-5.51V15h6.17v2.73zM144.81 0H151c4.87 0 5.78 3.25 5.78 8.78 0 2.72.42 9-5.92 9h-6.05zm3.71 15h1.8c2.26 0 2.7-1.7 2.7-6.15 0-3.27 0-6.14-2.58-6.14h-1.92zM162.29 11.6L157.64 0h4.06l2.65 7.5 2.83-7.5H171l-5 11.6v6.15h-3.71zM172.71 17.75V0h5l4.72 12.29h.05V0H186v17.75h-4.89l-4.84-13v13zM189.08 17.75V0h9.69v2.73h-6V7.1h5.5v2.73h-5.5V15H199v2.73zM206.76 17.75V0H216v2.73h-5.51v4.55h5.26V10h-5.26v7.75zM217.77 17.75V0h3.72v14.8H227v2.95zM228.66 17.75V0h3.72v17.75zM238.64 17.75h-3.71V0h6.86c2.53 0 4.21 1.62 4.21 4.65 0 2.26-.89 3.95-3.3 4.35v.05a3.15 3.15 0 0 1 3.22 3.49 24.6 24.6 0 0 0 .42 5.21h-3.64a8.17 8.17 0 0 1-.39-3.44c0-2.12.2-3.91-2.66-3.91h-1zm0-10.08h1.65c1.48 0 1.89-1.48 1.89-2.61 0-1.69-.71-2.33-1.89-2.33h-1.65zM99.66 22.61h10v1.18H101V29h8.07v1.2H101v5.72h8.72v1.18H99.66zM110.25 26.63h1.42l3.33 9.19 3.25-9.19h1.32l-3.92 10.47h-1.36zM121.56 32.21c0 1.87 1 4.12 3.45 4.12a3.19 3.19 0 0 0 3.29-2.68h1.28c-.58 2.35-1.93 3.76-4.58 3.76-3.33 0-4.73-2.56-4.73-5.54 0-2.76 1.4-5.54 4.73-5.54s4.71 2.94 4.61 5.88zm6.78-1.07c-.06-1.93-1.26-3.74-3.33-3.74s-3.25 1.83-3.45 3.74zM131.33 26.63h1.17v2.46a3.87 3.87 0 0 1 4-2.6v1.28a3.61 3.61 0 0 0-3.9 3.75v5.58h-1.27zM136.52 26.63h1.36l3.45 8.93 3.23-8.93h1.28l-4.55 12.08c-.73 1.76-1.16 2.27-2.76 2.27a3.3 3.3 0 0 1-1-.1V39.8a4.47 4.47 0 0 0 .87.1c1.14 0 1.4-.67 1.83-1.64l.44-1.2zM146 26.63h1.36l2.68 9 2.56-9h1.44l2.56 9 2.68-9h1.36l-3.27 10.47H156l-2.58-8.81-2.56 8.81h-1.4zM162.08 22.61h1.28v5.83a3.55 3.55 0 0 1 3.35-2.11c2.94 0 3.83 1.54 3.83 4v6.77h-1.24v-6.53c0-1.81-.58-3.17-2.65-3.17s-3.25 1.54-3.29 3.59v6.11h-1.28zM173.73 32.21c0 1.87 1 4.12 3.45 4.12a3.19 3.19 0 0 0 3.29-2.68h1.28c-.55 2.38-1.93 3.76-4.57 3.76-3.33 0-4.73-2.56-4.73-5.54 0-2.76 1.4-5.54 4.73-5.54s4.71 2.94 4.61 5.88zm6.78-1.07c-.06-1.93-1.26-3.74-3.33-3.74s-3.25 1.83-3.45 3.74zM183.5 26.63h1.17v2.46a3.87 3.87 0 0 1 4-2.6v1.28a3.61 3.61 0 0 0-3.9 3.75v5.58h-1.27zM190.26 32.21c0 1.87 1 4.12 3.45 4.12a3.18 3.18 0 0 0 3.29-2.68h1.28c-.55 2.38-1.93 3.76-4.56 3.76-3.33 0-4.73-2.56-4.73-5.54 0-2.76 1.4-5.54 4.73-5.54s4.7 2.94 4.6 5.88zm6.74-1.07c-.06-1.93-1.25-3.74-3.32-3.74s-3.25 1.83-3.45 3.74zM198.86 26.61h2.54l2.74 7.83 2.66-7.83h2.41l-4.08 11.06c-.75 1.89-1.29 3.59-3.71 3.59a10.48 10.48 0 0 1-1.6-.12v-2a6.78 6.78 0 0 0 1.09.14c1.08 0 1.34-.56 1.63-1.46l.26-.81zM210.05 31.85c0-3.21 1.93-5.52 5.29-5.52s5.3 2.31 5.3 5.52-1.93 5.54-5.3 5.54-5.29-2.32-5.29-5.54zm8.28 0c0-1.81-.91-3.7-3-3.7s-3 1.89-3 3.7.91 3.71 3 3.71 3-1.89 3-3.71zM231.77 37.1h-2.28v-1.46a3.51 3.51 0 0 1-3 1.75c-2.74 0-3.92-1.38-3.92-4.12v-6.66h2.32V33c0 1.85.75 2.52 2 2.52 1.92 0 2.57-1.24 2.57-2.86v-6.05h2.32zM234.2 22.61h1.28V37.1h-1.28zM247.29 31.87c0 3-1.74 5.54-4.95 5.54s-5-2.54-5-5.54 1.75-5.54 5-5.54 4.95 2.53 4.95 5.54zm-8.62 0c0 2.23 1.22 4.46 3.67 4.46S246 34.1 246 31.87s-1.22-4.47-3.68-4.47-3.65 2.23-3.65 4.47zM258.56 31.87c0 3-1.74 5.54-4.95 5.54s-5-2.54-5-5.54 1.74-5.54 5-5.54 4.95 2.53 4.95 5.54zm-8.62 0c0 2.23 1.21 4.46 3.67 4.46s3.67-2.23 3.67-4.46-1.21-4.47-3.67-4.47-3.67 2.23-3.67 4.47zM260.45 22.61h1.28v9.09l5.81-5.07h1.7l-4.47 3.88 4.77 6.59h-1.6l-4.14-5.7-2.07 1.72v4h-1.28zM268.12 22.5h2.31v.43h-.91v2.42H269v-2.42h-.9zM270.75 22.5h.7l.79 2.23.76-2.23h.69v2.85h-.47v-2.2l-.79 2.2H272l-.79-2.2v2.2h-.47zM47.39.43h24.97l18.11 17.68H64.88L47.39.43zM42.69.43H17.61L0 18.11h25.09L42.69.43zM46.07 2l17.37 17.37v24.44L46.07 26.77V2zM44.14 2v24.77L26.29 43.81V19.84L44.14 2z"></path></g></svg>
